<svg xmlns="http://www.w3.org/2000/svg" width="32" height="32" viewBox="0 0 32 32">
  <defs><filter id="g" x="-50%" y="-50%" width="200%" height="200%"><feGaussianBlur stdDeviation="1.2" result="b"/><feMerge><feMergeNode in="b"/><feMergeNode in="SourceGraphic"/></feMerge></filter></defs>
  <path d="M11.5 4.5a2.5 2.5 0 0 1 5 0v8.2-2a2.3 2.3 0 0 1 4.6 0v2.2-1a2.2 2.2 0 0 1 4.4 0v2.5-1a2.1 2.1 0 0 1 4.2 0v5.2c0 6.5-4 10.4-10.2 10.4h-1.8c-3.5 0-5.4-1.4-7.2-3.6l-5.6-6.8a2.7 2.7 0 0 1 4-3.6l2.6 2.2V4.5Z" fill="#17101f" stroke="#ff5bd6" stroke-width="1.8" stroke-linejoin="round" filter="url(#g)"/>
  <path d="M14 5v13M19 12.5v5.2m4.3-4.8v5m4.2-3.5v4.4" stroke="#8df7ff" stroke-width="1.15" stroke-linecap="round"/>
</svg>
